<svg width="54" height="44" viewBox="0 0 54 44" fill="none" xmlns="http://www.w3.org/2000/svg">
<path d="M45.6667 0.666626H8.33337C6.21164 0.666626 4.17681 1.50948 2.67652 3.00977C1.17623 4.51006 0.333374 6.54489 0.333374 8.66662V35.3333C0.333374 37.455 1.17623 39.4899 2.67652 40.9901C4.17681 42.4904 6.21164 43.3333 8.33337 43.3333H45.6667C47.7884 43.3333 49.8233 42.4904 51.3236 40.9901C52.8239 39.4899 53.6667 37.455 53.6667 35.3333V8.66662C53.6667 6.54489 52.8239 4.51006 51.3236 3.00977C49.8233 1.50948 47.7884 0.666626 45.6667 0.666626V0.666626ZM8.33337 38C7.62613 38 6.94785 37.719 6.44776 37.2189C5.94766 36.7188 5.66671 36.0405 5.66671 35.3333V28.88L14.4667 20.1066C14.9652 19.618 15.6354 19.3443 16.3334 19.3443C17.0314 19.3443 17.7016 19.618 18.2 20.1066L36.0934 38H8.33337ZM48.3334 35.3333C48.3334 36.0405 48.0524 36.7188 47.5523 37.2189C47.0522 37.719 46.374 38 45.6667 38H43.6134L33.4534 27.7866L35.8 25.44C36.2985 24.9514 36.9687 24.6777 37.6667 24.6777C38.3647 24.6777 39.0349 24.9514 39.5334 25.44L48.3334 34.2133V35.3333ZM48.3334 26.6933L43.32 21.7066C41.8002 20.2464 39.7743 19.431 37.6667 19.431C35.5591 19.431 33.5332 20.2464 32.0134 21.7066L29.6667 24.0533L21.9867 16.3733C20.4669 14.9131 18.441 14.0976 16.3334 14.0976C14.2258 14.0976 12.1999 14.9131 10.68 16.3733L5.66671 21.36V8.66662C5.66671 7.95938 5.94766 7.2811 6.44776 6.78101C6.94785 6.28091 7.62613 5.99996 8.33337 5.99996H45.6667C46.374 5.99996 47.0522 6.28091 47.5523 6.78101C48.0524 7.2811 48.3334 7.95938 48.3334 8.66662V26.6933Z" fill="#72768E"/>
</svg>
